999
dxflib 3.3.4.0
  0
SECTION
  2
HEADER
  9
$ACADVER
  1
AC1015
  9
$HANDSEED
  5
FFFF
  9
$DIMADEC
 70
0
  9
$DIMASZ
 40
2.5
  9
$DIMAUNIT
 70
0
  9
$DIMAZIN
 70
2
  9
$DIMDEC
 70
4
  9
$DIMEXE
 40
1.25
  9
$DIMEXO
 40
0.625
  9
$DIMGAP
 40
0.625
  9
$DIMLUNIT
 70
2
  9
$DIMSCALE
 40
1.0
  9
$DIMTSZ
 40
0.0
  9
$DIMTXT
 40
2.5
  9
$DIMZIN
 70
8
  9
$DWGCODEPAGE
  3
ANSI_1252
  9
$INSUNITS
 70
4
  9
$LTSCALE
 40
1.0
  0
ENDSEC
  0
SECTION
  2
TABLES
  0
TABLE
  2
VPORT
  5
8
100
AcDbSymbolTable
 70
1
  0
VPORT
  5
30
100
AcDbSymbolTableRecord
100
AcDbViewportTableRecord
  2
*Active
 70
0
 10
0.0
 20
0.0
 11
1.0
 21
1.0
 12
286.3055555555554861
 22
148.5
 13
0.0
 23
0.0
 14
10.0
 24
10.0
 15
10.0
 25
10.0
 16
0.0
 26
0.0
 36
1.0
 17
0.0
 27
0.0
 37
0.0
 40
297.0
 41
1.92798353909465
 42
50.0
 43
0.0
 44
0.0
 50
0.0
 51
0.0
 71
0
 72
100
 73
1
 74
3
 75
1
 76
1
 77
0
 78
0
281
0
 65
1
110
0.0
120
0.0
130
0.0
111
1.0
121
0.0
131
0.0
112
0.0
122
1.0
132
0.0
 79
0
146
0.0
  0
ENDTAB
  0
TABLE
  2
LTYPE
  5
5
100
AcDbSymbolTable
 70
21
  0
LTYPE
  5
16
100
AcDbSymbolTableRecord
100
AcDbLinetypeTableRecord
  2
CONTINUOUS
 70
0
  3
Solid line
 72
65
 73
0
 40
0.0
  0
LTYPE
  5
31
100
AcDbSymbolTableRecord
100
AcDbLinetypeTableRecord
  2
CENTER2
 70
0
  3
Center (.5x) ___ _ ___ _ ___ _ ___ _ ___ _ ___
 72
65
 73
4
 40
28.5749999999999993
 49
19.0500000000000007
 74
0
 49
-3.1749999999999998
 74
0
 49
3.1749999999999998
 74
0
 49
-3.1749999999999998
 74
0
  0
LTYPE
  5
32
100
AcDbSymbolTableRecord
100
AcDbLinetypeTableRecord
  2
DIVIDEX2
 70
0
  3
Divide (2x) ________  .  .  ________  .  .  _
 72
65
 73
6
 40
63.5
 49
25.3999999999999986
 74
0
 49
-12.6999999999999993
 74
0
 49
0.0
 74
0
 49
-12.6999999999999993
 74
0
 49
0.0
 74
0
 49
-12.6999999999999993
 74
0
  0
LTYPE
  5
33
100
AcDbSymbolTableRecord
100
AcDbLinetypeTableRecord
  2
DOT2
 70
0
  3
Dot (.5x) .....................................
 72
65
 73
2
 40
3.1749999999999998
 49
0.0
 74
0
 49
-3.1749999999999998
 74
0
  0
LTYPE
  5
34
100
AcDbSymbolTableRecord
100
AcDbLinetypeTableRecord
  2
DASHDOT2
 70
0
  3
Dash dot (.5x) _._._._._._._._._._._._._._._.
 72
65
 73
4
 40
12.6999999999999993
 49
6.3499999999999996
 74
0
 49
-3.1749999999999998
 74
0
 49
0.0
 74
0
 49
-3.1749999999999998
 74
0
  0
LTYPE
  5
35
100
AcDbSymbolTableRecord
100
AcDbLinetypeTableRecord
  2
DIVIDE
 70
0
  3
Divide ____ . . ____ . . ____ . . ____ . . ____
 72
65
 73
6
 40
31.75
 49
12.6999999999999993
 74
0
 49
-6.3499999999999996
 74
0
 49
0.0
 74
0
 49
-6.3499999999999996
 74
0
 49
0.0
 74
0
 49
-6.3499999999999996
 74
0
  0
LTYPE
  5
36
100
AcDbSymbolTableRecord
100
AcDbLinetypeTableRecord
  2
DASHDOT
 70
0
  3
Dash dot __ . __ . __ . __ . __ . __ . __ . __
 72
65
 73
4
 40
25.3999999999999986
 49
12.6999999999999993
 74
0
 49
-6.3499999999999996
 74
0
 49
0.0
 74
0
 49
-6.3499999999999996
 74
0
  0
LTYPE
  5
37
100
AcDbSymbolTableRecord
100
AcDbLinetypeTableRecord
  2
BORDER
 70
0
  3
Border __ __ . __ __ . __ __ . __ __ . __ __ .
 72
65
 73
6
 40
44.4500000000000028
 49
12.6999999999999993
 74
0
 49
-6.3499999999999996
 74
0
 49
12.6999999999999993
 74
0
 49
-6.3499999999999996
 74
0
 49
0.0
 74
0
 49
-6.3499999999999996
 74
0
  0
LTYPE
  5
38
100
AcDbSymbolTableRecord
100
AcDbLinetypeTableRecord
  2
DASHDOTX2
 70
0
  3
Dash dot (2x) ____  .  ____  .  ____  .  ___
 72
65
 73
4
 40
50.7999999999999972
 49
25.3999999999999986
 74
0
 49
-12.6999999999999993
 74
0
 49
0.0
 74
0
 49
-12.6999999999999993
 74
0
  0
LTYPE
  5
39
100
AcDbSymbolTableRecord
100
AcDbLinetypeTableRecord
  2
CENTERX2
 70
0
  3
Center (2x) ________  __  ________  __  _____
 72
65
 73
4
 40
101.5999999999999943
 49
63.5
 74
0
 49
-12.6999999999999993
 74
0
 49
12.6999999999999993
 74
0
 49
-12.6999999999999993
 74
0
  0
LTYPE
  5
3A
100
AcDbSymbolTableRecord
100
AcDbLinetypeTableRecord
  2
BORDER2
 70
0
  3
Border (.5x) __.__.__.__.__.__.__.__.__.__.__.
 72
65
 73
6
 40
22.2250000000000014
 49
6.3499999999999996
 74
0
 49
-3.1749999999999998
 74
0
 49
6.3499999999999996
 74
0
 49
-3.1749999999999998
 74
0
 49
0.0
 74
0
 49
-3.1749999999999998
 74
0
  0
LTYPE
  5
3B
100
AcDbSymbolTableRecord
100
AcDbLinetypeTableRecord
  2
BORDERX2
 70
0
  3
Border (2x) ____  ____  .  ____  ____  .  ___
 72
65
 73
6
 40
88.9000000000000057
 49
25.3999999999999986
 74
0
 49
-12.6999999999999993
 74
0
 49
25.3999999999999986
 74
0
 49
-12.6999999999999993
 74
0
 49
0.0
 74
0
 49
-12.6999999999999993
 74
0
  0
LTYPE
  5
14
100
AcDbSymbolTableRecord
100
AcDbLinetypeTableRecord
  2
BYBLOCK
 70
0
  3

 72
65
 73
0
 40
0.0
  0
LTYPE
  5
15
100
AcDbSymbolTableRecord
100
AcDbLinetypeTableRecord
  2
BYLAYER
 70
0
  3

 72
65
 73
0
 40
0.0
  0
LTYPE
  5
3C
100
AcDbSymbolTableRecord
100
AcDbLinetypeTableRecord
  2
DASHED2
 70
0
  3
Dashed (.5x) _ _ _ _ _ _ _ _ _ _ _ _ _ _ _ _ _
 72
65
 73
2
 40
9.5250000000000004
 49
6.3499999999999996
 74
0
 49
-3.1749999999999998
 74
0
  0
LTYPE
  5
3D
100
AcDbSymbolTableRecord
100
AcDbLinetypeTableRecord
  2
CENTER
 70
0
  3
Center ____ _ ____ _ ____ _ ____ _ ____ _ ____
 72
65
 73
4
 40
50.7999999999999972
 49
31.75
 74
0
 49
-6.3499999999999996
 74
0
 49
6.3499999999999996
 74
0
 49
-6.3499999999999996
 74
0
  0
LTYPE
  5
3E
100
AcDbSymbolTableRecord
100
AcDbLinetypeTableRecord
  2
DIVIDE2
 70
0
  3
Divide (.5x) __..__..__..__..__..__..__..__.._
 72
65
 73
6
 40
15.875
 49
6.3499999999999996
 74
0
 49
-3.1749999999999998
 74
0
 49
0.0
 74
0
 49
-3.1749999999999998
 74
0
 49
0.0
 74
0
 49
-3.1749999999999998
 74
0
  0
LTYPE
  5
3F
100
AcDbSymbolTableRecord
100
AcDbLinetypeTableRecord
  2
DASHED
 70
0
  3
Dashed __ __ __ __ __ __ __ __ __ __ __ __ __ _
 72
65
 73
2
 40
19.0500000000000007
 49
12.6999999999999993
 74
0
 49
-6.3499999999999996
 74
0
  0
LTYPE
  5
40
100
AcDbSymbolTableRecord
100
AcDbLinetypeTableRecord
  2
DOTX2
 70
0
  3
Dot (2x) .  .  .  .  .  .  .  .  .  .  .  .  .
 72
65
 73
2
 40
12.6999999999999993
 49
0.0
 74
0
 49
-12.6999999999999993
 74
0
  0
LTYPE
  5
41
100
AcDbSymbolTableRecord
100
AcDbLinetypeTableRecord
  2
DASHEDX2
 70
0
  3
Dashed (2x) ____  ____  ____  ____  ____  ___
 72
65
 73
2
 40
38.1000000000000014
 49
25.3999999999999986
 74
0
 49
-12.6999999999999993
 74
0
  0
LTYPE
  5
42
100
AcDbSymbolTableRecord
100
AcDbLinetypeTableRecord
  2
DOT
 70
0
  3
Dot . . . . . . . . . . . . . . . . . . . . . .
 72
65
 73
2
 40
6.3499999999999996
 49
0.0
 74
0
 49
-6.3499999999999996
 74
0
  0
ENDTAB
  0
TABLE
  2
LAYER
  5
2
100
AcDbSymbolTable
 70
11
  0
LAYER
  5
43
100
AcDbSymbolTableRecord
100
AcDbLayerTableRecord
  2
Base
 70
0
 62
7
420
0
  6
CONTINUOUS
370
25
390
F
  0
LAYER
  5
44
100
AcDbSymbolTableRecord
100
AcDbLayerTableRecord
  2
Top_Standoffs
 70
0
 62
7
420
0
  6
CONTINUOUS
370
25
390
F
  0
LAYER
  5
45
100
AcDbSymbolTableRecord
100
AcDbLayerTableRecord
  2
Arduino_Mounting_Holes
 70
0
 62
7
420
0
  6
CONTINUOUS
370
25
390
F
  0
LAYER
  5
46
100
AcDbSymbolTableRecord
100
AcDbLayerTableRecord
  2
Dimensions
 70
0
 62
3
420
65280
  6
CONTINUOUS
370
25
390
F
  0
LAYER
  5
47
100
AcDbSymbolTableRecord
100
AcDbLayerTableRecord
  2
Speaker
 70
0
 62
7
420
0
  6
CONTINUOUS
370
25
390
F
  0
LAYER
  5
48
100
AcDbSymbolTableRecord
100
AcDbLayerTableRecord
  2
Battery
 70
0
 62
7
420
0
  6
CONTINUOUS
370
25
390
F
  0
LAYER
  5
49
100
AcDbSymbolTableRecord
100
AcDbLayerTableRecord
  2
Wheels
 70
0
 62
7
420
0
  6
CONTINUOUS
370
25
390
F
  0
LAYER
  5
4A
100
AcDbSymbolTableRecord
100
AcDbLayerTableRecord
  2
Groove
 70
0
 62
7
420
16777215
  6
CONTINUOUS
370
5
390
F
  0
LAYER
  5
10
100
AcDbSymbolTableRecord
100
AcDbLayerTableRecord
  2
0
 70
0
 62
7
420
16777215
  6
CONTINUOUS
370
25
390
F
  0
LAYER
  5
4B
100
AcDbSymbolTableRecord
100
AcDbLayerTableRecord
  2
Ball_Wheel
 70
0
 62
7
420
0
  6
CONTINUOUS
370
25
390
F
  0
LAYER
  5
4C
100
AcDbSymbolTableRecord
100
AcDbLayerTableRecord
  2
Line_Sensor
 70
0
 62
7
420
0
  6
CONTINUOUS
370
25
390
F
  0
ENDTAB
  0
TABLE
  2
STYLE
  5
3
100
AcDbSymbolTable
 70
1
  0
STYLE
  5
4D
100
AcDbSymbolTableRecord
100
AcDbTextStyleTableRecord
  2
Standard
 70
0
 40
0.0
 41
1.0
 50
0.0
 71
0
 42
2.5
  3

  4

1001
ACAD
1000
txt
1071
0
  0
ENDTAB
  0
TABLE
  2
VIEW
  5
6
100
AcDbSymbolTable
 70
0
  0
ENDTAB
  0
TABLE
  2
UCS
  5
7
100
AcDbSymbolTable
 70
0
  0
ENDTAB
  0
TABLE
  2
APPID
  5
9
100
AcDbSymbolTable
 70
1
  0
APPID
  5
12
100
AcDbSymbolTableRecord
100
AcDbRegAppTableRecord
  2
ACAD
 70
0
  0
APPID
  5
4E
100
AcDbSymbolTableRecord
100
AcDbRegAppTableRecord
  2
QCAD
 70
0
  0
ENDTAB
  0
TABLE
  2
DIMSTYLE
  5
A
100
AcDbSymbolTable
 70
1
100
AcDbDimStyleTable
 71
0
  0
DIMSTYLE
105
27
100
AcDbSymbolTableRecord
100
AcDbDimStyleTableRecord
  2
Standard
 41
2.5
 42
0.625
 43
3.75
 44
1.25
 70
0
 73
0
 74
0
 77
1
 78
8
140
2.5
141
2.5
143
0.03937007874016
147
0.625
171
3
172
1
271
2
272
2
274
3
278
44
283
0
284
8
340
4D
  0
ENDTAB
  0
TABLE
  2
BLOCK_RECORD
  5
1
100
AcDbSymbolTable
 70
1
  0
BLOCK_RECORD
  5
1F
100
AcDbSymbolTableRecord
100
AcDbBlockTableRecord
  2
*Model_Space
340
22
  0
BLOCK_RECORD
  5
1B
100
AcDbSymbolTableRecord
100
AcDbBlockTableRecord
  2
*Paper_Space
340
1E
  0
BLOCK_RECORD
  5
23
100
AcDbSymbolTableRecord
100
AcDbBlockTableRecord
  2
*Paper_Space0
340
26
  0
BLOCK_RECORD
  5
4F
100
AcDbSymbolTableRecord
100
AcDbBlockTableRecord
  2
Battery_Holder
340
0
  0
BLOCK_RECORD
  5
50
100
AcDbSymbolTableRecord
100
AcDbBlockTableRecord
  2
Arduino
340
0
  0
BLOCK_RECORD
  5
51
100
AcDbSymbolTableRecord
100
AcDbBlockTableRecord
  2
Left_Wheel
340
0
  0
BLOCK_RECORD
  5
52
100
AcDbSymbolTableRecord
100
AcDbBlockTableRecord
  2
Line_Sensor_Holes
340
0
  0
BLOCK_RECORD
  5
53
100
AcDbSymbolTableRecord
100
AcDbBlockTableRecord
  2
Speaker_Holes
340
0
  0
BLOCK_RECORD
  5
54
100
AcDbSymbolTableRecord
100
AcDbBlockTableRecord
  2
Right_Wheel
340
0
  0
ENDTAB
  0
ENDSEC
  0
SECTION
  2
BLOCKS
  0
BLOCK
  5
20
100
AcDbEntity
  8
0
100
AcDbBlockBegin
  2
*Model_Space
 70
0
 10
0.0
 20
0.0
 30
0.0
  3
*Model_Space
  1

  0
ENDBLK
  5
21
100
AcDbEntity
  8
0
100
AcDbBlockEnd
  0
BLOCK
  5
1C
100
AcDbEntity
 67
1
  8
0
100
AcDbBlockBegin
  2
*Paper_Space
 70
0
 10
0.0
 20
0.0
 30
0.0
  3
*Paper_Space
  1

  0
ENDBLK
  5
1D
100
AcDbEntity
 67
1
  8
0
100
AcDbBlockEnd
  0
BLOCK
  5
24
100
AcDbEntity
  8
0
100
AcDbBlockBegin
  2
*Paper_Space0
 70
0
 10
0.0
 20
0.0
 30
0.0
  3
*Paper_Space0
  1

  0
ENDBLK
  5
25
100
AcDbEntity
  8
0
100
AcDbBlockEnd
  0
BLOCK
  5
55
100
AcDbEntity
  8
0
100
AcDbBlockBegin
  2
Battery_Holder
 70
0
 10
0.0
 20
0.0
 30
0.0
  3
Battery_Holder
  1

  0
LINE
  5
56
100
AcDbEntity
100
AcDbLine
  8
Dimensions
 62
256
370
-1
  6
BYLAYER
 10
-41.0
 20
-19.0749999999999993
 30
0.0
 11
41.0
 21
-19.0749999999999993
 31
0.0
  0
LINE
  5
57
100
AcDbEntity
100
AcDbLine
  8
Dimensions
 62
256
370
-1
  6
BYLAYER
 10
41.0
 20
-19.0749999999999993
 30
0.0
 11
41.0
 21
19.0749999999999993
 31
0.0
  0
LINE
  5
58
100
AcDbEntity
100
AcDbLine
  8
Dimensions
 62
256
370
-1
  6
BYLAYER
 10
41.0
 20
19.0749999999999993
 30
0.0
 11
-41.0
 21
19.0749999999999993
 31
0.0
  0
LINE
  5
59
100
AcDbEntity
100
AcDbLine
  8
Dimensions
 62
256
370
-1
  6
BYLAYER
 10
-41.0
 20
19.0749999999999993
 30
0.0
 11
-41.0
 21
-19.0749999999999993
 31
0.0
  0
DIMENSION
  5
5A
100
AcDbEntity
  8
Dimensions
 62
256
370
-1
  6
BYLAYER
100
AcDbDimension
 10
-44.0
 20
-12.0
 30
0.0
 11
-45.875
 21
-0.0000000000000007
 31
0.0
 70
0
 71
8
 72
2
 41
1.0
 42
0.0
  1

  3
Standard
100
AcDbAlignedDimension
 13
-35.0
 23
12.1614143899999991
 33
0.0
 14
-35.0
 24
-12.1614143899999991
 34
0.0
 50
90.0
100
AcDbRotatedDimension
1001
ACAD
1000
DSTYLE
1002
{
1070
144
1040
1
1002
}
  0
DIMENSION
  5
5B
100
AcDbEntity
  8
Dimensions
 62
256
370
-1
  6
BYLAYER
100
AcDbDimension
 10
24.0
 20
8.0
 30
0.0
 11
0.0000000000000001
 21
9.875
 31
0.0
 70
0
 71
8
 72
2
 41
1.0
 42
0.0
  1

  3
Standard
100
AcDbAlignedDimension
 13
-35.0
 23
-1.0
 33
0.0
 14
35.0
 24
-1.0
 34
0.0
 50
0.0
100
AcDbRotatedDimension
1001
ACAD
1000
DSTYLE
1002
{
1070
144
1040
1
1002
}
  0
LINE
  5
5C
100
AcDbEntity
100
AcDbLine
  8
Battery
 62
256
370
-1
  6
BYLAYER
 10
5.0
 20
12.1614143899999991
 30
0.0
 11
5.0
 21
16.0749999999999993
 31
0.0
  0
LINE
  5
5D
100
AcDbEntity
100
AcDbLine
  8
Battery
 62
256
370
-1
  6
BYLAYER
 10
5.0
 20
16.0749999999999993
 30
0.0
 11
-5.0
 21
16.0749999999999993
 31
0.0
  0
LINE
  5
5E
100
AcDbEntity
100
AcDbLine
  8
Battery
 62
256
370
-1
  6
BYLAYER
 10
-5.0
 20
16.0749999999999993
 30
0.0
 11
-5.0
 21
12.1614143899999991
 31
0.0
  0
LINE
  5
5F
100
AcDbEntity
100
AcDbLine
  8
Battery
 62
256
370
-1
  6
BYLAYER
 10
-5.0
 20
-16.0749999999999993
 30
0.0
 11
5.0
 21
-16.0749999999999993
 31
0.0
  0
LINE
  5
60
100
AcDbEntity
100
AcDbLine
  8
Battery
 62
256
370
-1
  6
BYLAYER
 10
5.0
 20
-16.0749999999999993
 30
0.0
 11
5.0
 21
-12.1614140000000006
 31
0.0
  0
LINE
  5
61
100
AcDbEntity
100
AcDbLine
  8
Battery
 62
256
370
-1
  6
BYLAYER
 10
-5.0
 20
-12.1614140000000006
 30
0.0
 11
-5.0
 21
-16.0749999999999993
 31
0.0
  0
LINE
  5
62
100
AcDbEntity
100
AcDbLine
  8
Battery
 62
256
370
-1
  6
BYLAYER
 10
-38.0
 20
-5.0
 30
0.0
 11
-35.0
 21
-5.0
 31
0.0
  0
LINE
  5
63
100
AcDbEntity
100
AcDbLine
  8
Battery
 62
256
370
-1
  6
BYLAYER
 10
-35.0
 20
5.0
 30
0.0
 11
-38.0
 21
5.0
 31
0.0
  0
LINE
  5
64
100
AcDbEntity
100
AcDbLine
  8
Battery
 62
256
370
-1
  6
BYLAYER
 10
-38.0
 20
5.0
 30
0.0
 11
-38.0
 21
-5.0
 31
0.0
  0
LINE
  5
65
100
AcDbEntity
100
AcDbLine
  8
Battery
 62
256
370
-1
  6
BYLAYER
 10
35.0
 20
-5.0
 30
0.0
 11
38.0
 21
-5.0
 31
0.0
  0
LINE
  5
66
100
AcDbEntity
100
AcDbLine
  8
Battery
 62
256
370
-1
  6
BYLAYER
 10
38.0
 20
-5.0
 30
0.0
 11
38.0
 21
5.0
 31
0.0
  0
LINE
  5
67
100
AcDbEntity
100
AcDbLine
  8
Battery
 62
256
370
-1
  6
BYLAYER
 10
38.0
 20
5.0
 30
0.0
 11
35.0
 21
5.0
 31
0.0
  0
LINE
  5
68
100
AcDbEntity
100
AcDbLine
  8
Battery
 62
256
370
-1
  6
BYLAYER
 10
-35.0
 20
12.1614143899999991
 30
0.0
 11
-35.0
 21
5.0000000000000009
 31
0.0
  0
LINE
  5
69
100
AcDbEntity
100
AcDbLine
  8
Battery
 62
256
370
-1
  6
BYLAYER
 10
-35.0
 20
-4.9999999999999947
 30
0.0
 11
-35.0
 21
-12.1614143899999991
 31
0.0
  0
LINE
  5
6A
100
AcDbEntity
100
AcDbLine
  8
Battery
 62
256
370
-1
  6
BYLAYER
 10
35.0
 20
12.1614143899999991
 30
0.0
 11
5.0
 21
12.1614143899999991
 31
0.0
  0
LINE
  5
6B
100
AcDbEntity
100
AcDbLine
  8
Battery
 62
256
370
-1
  6
BYLAYER
 10
-5.0
 20
12.1614143899999991
 30
0.0
 11
-35.0
 21
12.1614143899999991
 31
0.0
  0
LINE
  5
6C
100
AcDbEntity
100
AcDbLine
  8
Battery
 62
256
370
-1
  6
BYLAYER
 10
-35.0
 20
-12.1614143899999991
 30
0.0
 11
-5.0
 21
-12.1614143899999991
 31
0.0
  0
LINE
  5
6D
100
AcDbEntity
100
AcDbLine
  8
Battery
 62
256
370
-1
  6
BYLAYER
 10
5.0
 20
-12.1614143899999991
 30
0.0
 11
35.0
 21
-12.1614143899999991
 31
0.0
  0
LINE
  5
6E
100
AcDbEntity
100
AcDbLine
  8
Battery
 62
256
370
-1
  6
BYLAYER
 10
35.0
 20
-12.1614143899999991
 30
0.0
 11
35.0
 21
-5.0000000000000009
 31
0.0
  0
LINE
  5
6F
100
AcDbEntity
100
AcDbLine
  8
Battery
 62
256
370
-1
  6
BYLAYER
 10
35.0
 20
4.9999999999999947
 30
0.0
 11
35.0
 21
12.1614143899999991
 31
0.0
  0
DIMENSION
  5
70
100
AcDbEntity
  8
Dimensions
 62
256
370
-1
  6
BYLAYER
100
AcDbDimension
 10
3.0
 20
-10.0
 30
0.0
 11
1.125
 21
-0.0374999999999994
 31
0.0
 70
0
 71
8
 72
2
 41
1.0
 42
0.0
  1

  3
Standard
100
AcDbAlignedDimension
 13
-1.0
 23
16.0
 33
0.0
 14
-5.0
 24
-16.0749999999999993
 34
0.0
 50
90.0
100
AcDbRotatedDimension
1001
ACAD
1000
DSTYLE
1002
{
1070
144
1040
1
1002
}
  0
ENDBLK
  5
71
100
AcDbEntity
  8
0
100
AcDbBlockEnd
  0
BLOCK
  5
72
100
AcDbEntity
  8
0
100
AcDbBlockBegin
  2
Arduino
 70
0
 10
0.0
 20
0.0
 30
0.0
  3
Arduino
  1

  0
CIRCLE
  5
73
100
AcDbEntity
100
AcDbCircle
  8
Arduino_Mounting_Holes
 62
256
370
-1
  6
BYLAYER
 10
13.9699999999999971
 20
-50.7999999999999901
 30
0.0
 40
1.5874999999999997
  0
LINE
  5
74
100
AcDbEntity
100
AcDbLine
  8
Dimensions
 62
256
370
-1
  6
BYLAYER
 10
66.039999999999992
 20
-1.5239999999999998
 30
0.0
 11
64.5159999999999911
 21
0.0
 31
0.0
  0
CIRCLE
  5
75
100
AcDbEntity
100
AcDbCircle
  8
Arduino_Mounting_Holes
 62
256
370
-1
  6
BYLAYER
 10
66.039999999999992
 20
-17.7799999999999976
 30
0.0
 40
1.5874999999999997
  0
LINE
  5
76
100
AcDbEntity
100
AcDbLine
  8
Dimensions
 62
256
370
-1
  6
BYLAYER
 10
64.5159999999999911
 20
0.0
 30
0.0
 11
0.0
 21
0.0
 31
0.0
  0
CIRCLE
  5
77
100
AcDbEntity
100
AcDbCircle
  8
Arduino_Mounting_Holes
 62
256
370
-1
  6
BYLAYER
 10
66.039999999999992
 20
-45.7199999999999918
 30
0.0
 40
1.5874999999999997
  0
DIMENSION
  5
78
100
AcDbEntity
  8
Dimensions
 62
256
370
-1
  6
BYLAYER
100
AcDbDimension
 10
15.5575000000000045
 20
-50.8000000000000043
 30
0.0
 11
19.7936111111111153
 21
-48.9250000000000043
 31
0.0
 70
3
 71
8
 72
2
 41
1.0
 42
0.0
  1

  3
Standard
100
AcDbDiametricDimension
 15
12.382499999999979
 25
-50.8000000000000043
 35
0.0
 40
0.0
1001
ACAD
1000
DSTYLE
1002
{
1070
144
1040
1
1002
}
  0
LINE
  5
79
100
AcDbEntity
100
AcDbLine
  8
Dimensions
 62
256
370
-1
  6
BYLAYER
 10
0.0
 20
0.0
 30
0.0
 11
0.0
 21
-53.3399999999999892
 31
0.0
  0
LINE
  5
7A
100
AcDbEntity
100
AcDbLine
  8
Dimensions
 62
256
370
-1
  6
BYLAYER
 10
0.0
 20
-53.3399999999999892
 30
0.0
 11
66.039999999999992
 21
-53.3399999999999892
 31
0.0
  0
LINE
  5
7B
100
AcDbEntity
100
AcDbLine
  8
Dimensions
 62
256
370
-1
  6
BYLAYER
 10
66.039999999999992
 20
-53.3399999999999892
 30
0.0
 11
66.039999999999992
 21
-50.7999999999999901
 31
0.0
  0
LINE
  5
7C
100
AcDbEntity
100
AcDbLine
  8
Dimensions
 62
256
370
-1
  6
BYLAYER
 10
66.039999999999992
 20
-50.7999999999999901
 30
0.0
 11
68.5799999999999841
 21
-48.2599999999999909
 31
0.0
  0
LINE
  5
7D
100
AcDbEntity
100
AcDbLine
  8
Dimensions
 62
256
370
-1
  6
BYLAYER
 10
68.5799999999999841
 20
-48.2599999999999909
 30
0.0
 11
68.5799999999999841
 21
-15.493999999999998
 31
0.0
  0
LINE
  5
7E
100
AcDbEntity
100
AcDbLine
  8
Dimensions
 62
256
370
-1
  6
BYLAYER
 10
68.5799999999999841
 20
-15.493999999999998
 30
0.0
 11
66.039999999999992
 21
-12.9539999999999971
 31
0.0
  0
CIRCLE
  5
7F
100
AcDbEntity
100
AcDbCircle
  8
Arduino_Mounting_Holes
 62
256
370
-1
  6
BYLAYER
 10
15.2399999999999967
 20
-2.5399999999999996
 30
0.0
 40
1.5874999999999997
  0
LINE
  5
80
100
AcDbEntity
100
AcDbLine
  8
Dimensions
 62
256
370
-1
  6
BYLAYER
 10
66.039999999999992
 20
-12.9539999999999971
 30
0.0
 11
66.039999999999992
 21
-1.5239999999999998
 31
0.0
  0
ENDBLK
  5
81
100
AcDbEntity
  8
0
100
AcDbBlockEnd
  0
BLOCK
  5
82
100
AcDbEntity
  8
0
100
AcDbBlockBegin
  2
Left_Wheel
 70
0
 10
0.0
 20
0.0
 30
0.0
  3
Left_Wheel
  1

  0
LWPOLYLINE
  5
83
  8
Wheels
 62
256
370
-1
  6
BYLAYER
100
AcDbEntity
100
AcDbPolyline
 90
8
 70
1
 10
36.0
 20
-21.8000000000000043
 30
0.0
 42
0.4142135623730951
 10
39.2000000000000028
 20
-25.0000000000000036
 30
0.0
 10
42.7999999999999972
 20
-25.0000000000000036
 30
0.0
 42
0.4142135623730951
 10
46.0
 20
-21.8000000000000043
 30
0.0
 10
46.0
 20
6.7999999999999972
 30
0.0
 42
0.4142135623730951
 10
42.7999999999999972
 20
9.9999999999999964
 30
0.0
 10
39.2000000000000028
 20
9.9999999999999964
 30
0.0
 42
0.4142135623730951
 10
36.0
 20
6.7999999999999972
 30
0.0
  0
CIRCLE
  5
84
100
AcDbEntity
100
AcDbCircle
  8
Wheels
 62
256
370
-1
  6
BYLAYER
 10
31.75
 20
-16.5000000000000036
 30
0.0
 40
1.190625
  0
CIRCLE
  5
85
100
AcDbEntity
100
AcDbCircle
  8
Wheels
 62
256
370
-1
  6
BYLAYER
 10
31.75
 20
1.4999999999999964
 30
0.0
 40
1.190625
  0
LINE
  5
86
100
AcDbEntity
100
AcDbLine
  8
Dimensions
 62
256
370
-1
  6
BYLAYER
 10
36.0
 20
5.7999999999999901
 30
0.0
 11
27.5
 21
5.7999999999999936
 31
0.0
  0
LINE
  5
87
100
AcDbEntity
100
AcDbLine
  8
Dimensions
 62
256
370
-1
  6
BYLAYER
 10
27.5
 20
-0.0000000000000036
 30
0.0
 11
0.0
 21
0.0
 31
0.0
  0
LINE
  5
88
100
AcDbEntity
100
AcDbLine
  8
Dimensions
 62
256
370
-1
  6
BYLAYER
 10
0.0
 20
0.0
 30
0.0
 11
0.0
 21
-14.9999999999999982
 31
0.0
  0
LINE
  5
89
100
AcDbEntity
100
AcDbLine
  8
Dimensions
 62
256
370
-1
  6
BYLAYER
 10
27.5
 20
5.7999999999999936
 30
0.0
 11
27.5
 21
-0.0000000000000036
 31
0.0
  0
LINE
  5
8A
100
AcDbEntity
100
AcDbLine
  8
Dimensions
 62
256
370
-1
  6
BYLAYER
 10
27.5
 20
-20.8000000000000114
 30
0.0
 11
36.0
 21
-20.8000000000000114
 31
0.0
  0
LINE
  5
8B
100
AcDbEntity
100
AcDbLine
  8
Dimensions
 62
256
370
-1
  6
BYLAYER
 10
0.0
 20
-14.9999999999999982
 30
0.0
 11
27.5
 21
-15.0000000000000107
 31
0.0
  0
LINE
  5
8C
100
AcDbEntity
100
AcDbLine
  8
Dimensions
 62
256
370
-1
  6
BYLAYER
 10
27.5
 20
-15.0000000000000107
 30
0.0
 11
27.5
 21
-20.8000000000000114
 31
0.0
  0
ENDBLK
  5
8D
100
AcDbEntity
  8
0
100
AcDbBlockEnd
  0
BLOCK
  5
8E
100
AcDbEntity
  8
0
100
AcDbBlockBegin
  2
Line_Sensor_Holes
 70
0
 10
0.0
 20
0.0
 30
0.0
  3
Line_Sensor_Holes
  1

  0
LWPOLYLINE
  5
8F
  8
Line_Sensor
 62
256
370
-1
  6
BYLAYER
100
AcDbEntity
100
AcDbPolyline
 90
8
 70
1
 10
-9.5250000000000004
 20
1.375
 30
0.0
 42
0.4142135623730951
 10
-8.1500000000000004
 20
0.0
 30
0.0
 10
8.1500000000000004
 20
0.0
 30
0.0
 42
0.4142135623730951
 10
9.5250000000000004
 20
1.375
 30
0.0
 10
9.5250000000000004
 20
2.4249999999999972
 30
0.0
 42
0.4142135623730951
 10
8.1500000000000004
 20
3.7999999999999972
 30
0.0
 10
-8.1500000000000004
 20
3.7999999999999972
 30
0.0
 42
0.4142135623730951
 10
-9.5250000000000004
 20
2.4249999999999972
 30
0.0
  0
CIRCLE
  5
90
100
AcDbEntity
100
AcDbCircle
  8
Line_Sensor
 62
256
370
-1
  6
BYLAYER
 10
-13.3729999999999993
 20
0.0
 30
0.0
 40
1.190625
  0
CIRCLE
  5
91
100
AcDbEntity
100
AcDbCircle
  8
Line_Sensor
 62
256
370
-1
  6
BYLAYER
 10
13.327
 20
0.0
 30
0.0
 40
1.190625
  0
ENDBLK
  5
92
100
AcDbEntity
  8
0
100
AcDbBlockEnd
  0
BLOCK
  5
93
100
AcDbEntity
  8
0
100
AcDbBlockBegin
  2
Speaker_Holes
 70
0
 10
0.0
 20
0.0
 30
0.0
  3
Speaker_Holes
  1

  0
CIRCLE
  5
94
100
AcDbEntity
100
AcDbCircle
  8
Dimensions
 62
256
370
-1
  6
BYLAYER
 10
0.0
 20
0.0
 30
0.0
 40
11.5
  0
CIRCLE
  5
95
100
AcDbEntity
100
AcDbCircle
  8
Speaker
 62
256
370
-1
  6
BYLAYER
 10
0.0
 20
9.0
 30
0.0
 40
1.5874999999999999
  0
CIRCLE
  5
96
100
AcDbEntity
100
AcDbCircle
  8
Speaker
 62
256
370
-1
  6
BYLAYER
 10
-9.0
 20
0.0
 30
0.0
 40
1.5874999999999999
  0
CIRCLE
  5
97
100
AcDbEntity
100
AcDbCircle
  8
Speaker
 62
256
370
-1
  6
BYLAYER
 10
0.0
 20
-9.0
 30
0.0
 40
1.5874999999999999
  0
CIRCLE
  5
98
100
AcDbEntity
100
AcDbCircle
  8
Speaker
 62
256
370
-1
  6
BYLAYER
 10
9.0
 20
0.0
 30
0.0
 40
1.5874999999999999
  0
CIRCLE
  5
99
100
AcDbEntity
100
AcDbCircle
  8
Speaker
 62
256
370
-1
  6
BYLAYER
 10
-4.0
 20
0.0
 30
0.0
 40
1.5874999999999999
  0
CIRCLE
  5
9A
100
AcDbEntity
100
AcDbCircle
  8
Speaker
 62
256
370
-1
  6
BYLAYER
 10
-6.3639599999999996
 20
6.3639599999999996
 30
0.0
 40
1.5874999999999999
  0
CIRCLE
  5
9B
100
AcDbEntity
100
AcDbCircle
  8
Speaker
 62
256
370
-1
  6
BYLAYER
 10
6.3639599999999996
 20
6.3639599999999996
 30
0.0
 40
1.5874999999999999
  0
CIRCLE
  5
9C
100
AcDbEntity
100
AcDbCircle
  8
Speaker
 62
256
370
-1
  6
BYLAYER
 10
6.3639599999999996
 20
-6.3639599999999996
 30
0.0
 40
1.5874999999999999
  0
CIRCLE
  5
9D
100
AcDbEntity
100
AcDbCircle
  8
Speaker
 62
256
370
-1
  6
BYLAYER
 10
-6.3639599999999996
 20
-6.3639599999999996
 30
0.0
 40
1.5874999999999999
  0
CIRCLE
  5
9E
100
AcDbEntity
100
AcDbCircle
  8
Speaker
 62
256
370
-1
  6
BYLAYER
 10
4.0
 20
0.0
 30
0.0
 40
1.5874999999999999
  0
CIRCLE
  5
9F
100
AcDbEntity
100
AcDbCircle
  8
Speaker
 62
256
370
-1
  6
BYLAYER
 10
0.0
 20
4.0
 30
0.0
 40
1.5874999999999999
  0
CIRCLE
  5
A0
100
AcDbEntity
100
AcDbCircle
  8
Speaker
 62
256
370
-1
  6
BYLAYER
 10
0.0
 20
-4.0
 30
0.0
 40
1.5874999999999999
  0
ENDBLK
  5
A1
100
AcDbEntity
  8
0
100
AcDbBlockEnd
  0
BLOCK
  5
A2
100
AcDbEntity
  8
0
100
AcDbBlockBegin
  2
Right_Wheel
 70
0
 10
0.0
 20
0.0
 30
0.0
  3
Right_Wheel
  1

  0
LWPOLYLINE
  5
A3
  8
Wheels
 62
256
370
-1
  6
BYLAYER
100
AcDbEntity
100
AcDbPolyline
 90
8
 70
1
 10
-49.558400000000006
 20
12.0761920000000025
 30
0.0
 42
0.4142135623730951
 10
-46.3584000000000032
 20
8.8761920000000032
 30
0.0
 10
-42.7584000000000088
 20
8.8761920000000032
 30
0.0
 42
0.4142135623730951
 10
-39.558400000000006
 20
12.0761920000000025
 30
0.0
 10
-39.558400000000006
 20
40.6761920000000003
 30
0.0
 42
0.4142135623730951
 10
-42.7584000000000088
 20
43.8761920000000032
 30
0.0
 10
-46.3584000000000032
 20
43.8761920000000032
 30
0.0
 42
0.4142135623730951
 10
-49.558400000000006
 20
40.6761920000000003
 30
0.0
  0
CIRCLE
  5
A4
100
AcDbEntity
100
AcDbCircle
  8
Wheels
 62
256
370
-1
  6
BYLAYER
 10
-35.308400000000006
 20
35.3761920000000032
 30
0.0
 40
1.190625
  0
CIRCLE
  5
A5
100
AcDbEntity
100
AcDbCircle
  8
Wheels
 62
256
370
-1
  6
BYLAYER
 10
-35.308400000000006
 20
17.3761920000000032
 30
0.0
 40
1.190625
  0
DIMENSION
  5
A6
100
AcDbEntity
  8
Dimensions
 62
256
370
-1
  6
BYLAYER
100
AcDbDimension
 10
-35.2948599660123108
 20
36.5667400074758078
 30
0.0
 11
-37.110508473027167
 21
41.7960594287854121
 31
0.0
 70
3
 71
8
 72
2
 41
1.0
 42
0.0
  1

  3
Standard
100
AcDbDiametricDimension
 15
-35.3219400339877012
 25
34.1856439925241986
 35
0.0
 40
0.0
1001
ACAD
1000
DSTYLE
1002
{
1070
144
1040
1
1002
}
  0
DIMENSION
  5
A7
100
AcDbEntity
  8
Dimensions
 62
256
370
-1
  6
BYLAYER
100
AcDbDimension
 10
-10.4509439999999927
 20
22.8925440000000009
 30
0.0
 11
-44.558400000000006
 21
24.7675440000000009
 31
0.0
 70
0
 71
8
 72
2
 41
1.0
 42
0.0
  1

  3
Standard
100
AcDbAlignedDimension
 13
-49.558400000000006
 23
26.3761920000000032
 33
0.0
 14
-39.558400000000006
 24
26.3761920000000032
 34
0.0
 50
0.0
100
AcDbRotatedDimension
1001
ACAD
1000
DSTYLE
1002
{
1070
144
1040
1
1002
}
  0
DIMENSION
  5
A8
100
AcDbEntity
  8
Dimensions
 62
256
370
-1
  6
BYLAYER
100
AcDbDimension
 10
-54.7430399999999793
 20
8.9579520000000059
 30
0.0
 11
-56.6180399999999793
 21
26.3761920000000032
 31
0.0
 70
0
 71
8
 72
2
 41
1.0
 42
0.0
  1

  3
Standard
100
AcDbAlignedDimension
 13
-42.7584000000000088
 23
43.8761920000000032
 33
0.0
 14
-42.7584000000000088
 24
8.8761920000000032
 34
0.0
 50
90.0
100
AcDbRotatedDimension
1001
ACAD
1000
DSTYLE
1002
{
1070
144
1040
1
1002
}
  0
LINE
  5
A9
100
AcDbEntity
100
AcDbLine
  8
Dimensions
 62
256
370
-1
  6
BYLAYER
 10
-39.558400000000006
 20
39.6761920000000003
 30
0.0
 11
-31.058400000000006
 21
39.6761920000000003
 31
0.0
  0
LINE
  5
AA
100
AcDbEntity
100
AcDbLine
  8
Dimensions
 62
256
370
-1
  6
BYLAYER
 10
-31.058400000000006
 20
33.8761920000000032
 30
0.0
 11
-3.558400000000006
 21
33.8761920000000032
 31
0.0
  0
LINE
  5
AB
100
AcDbEntity
100
AcDbLine
  8
Dimensions
 62
256
370
-1
  6
BYLAYER
 10
-3.558400000000006
 20
33.8761920000000032
 30
0.0
 11
-3.558400000000006
 21
18.8761920000000032
 31
0.0
  0
LINE
  5
AC
100
AcDbEntity
100
AcDbLine
  8
Dimensions
 62
256
370
-1
  6
BYLAYER
 10
-31.058400000000006
 20
39.6761920000000003
 30
0.0
 11
-31.058400000000006
 21
33.8761920000000032
 31
0.0
  0
LINE
  5
AD
100
AcDbEntity
100
AcDbLine
  8
Dimensions
 62
256
370
-1
  6
BYLAYER
 10
-31.058400000000006
 20
13.0761920000000025
 30
0.0
 11
-39.558400000000006
 21
13.0761920000000025
 31
0.0
  0
LINE
  5
AE
100
AcDbEntity
100
AcDbLine
  8
Dimensions
 62
256
370
-1
  6
BYLAYER
 10
-3.558400000000006
 20
18.8761920000000032
 30
0.0
 11
-31.058400000000006
 21
18.8761920000000032
 31
0.0
  0
LINE
  5
AF
100
AcDbEntity
100
AcDbLine
  8
Dimensions
 62
256
370
-1
  6
BYLAYER
 10
-31.058400000000006
 20
18.8761920000000032
 30
0.0
 11
-31.058400000000006
 21
13.0761920000000025
 31
0.0
  0
ENDBLK
  5
B0
100
AcDbEntity
  8
0
100
AcDbBlockEnd
  0
ENDSEC
  0
SECTION
  2
ENTITIES
  0
LWPOLYLINE
  5
B1
  8
Ball_Wheel
 62
256
370
-1
  6
BYLAYER
100
AcDbEntity
100
AcDbPolyline
 90
5
 70
1
 10
0.0
 20
70.6986754966887645
 30
0.0
 42
-0.4142135623730951
 10
7.625
 20
63.0736754966887574
 30
0.0
 42
-0.2891352647980174
 10
3.2783543111150868
 20
56.1986754966887574
 30
0.0
 10
-3.2783543111150881
 20
56.1986754966887574
 30
0.0
 42
-0.2891352647980174
 10
-7.625
 20
63.0736754966887574
 30
0.0
 42
-0.4142135623730951
  0
INSERT
  5
B2
100
AcDbEntity
100
AcDbBlockReference
  8
Arduino_Mounting_Holes
 62
256
370
-1
  6
BYLAYER
  2
Arduino
 10
-26.6750000000000007
 20
-52.0
 30
0.0
 50
90.0
  0
INSERT
  5
B3
100
AcDbEntity
100
AcDbBlockReference
  8
Wheels
 62
256
370
-1
  6
BYLAYER
  2
Right_Wheel
 10
-12.441599999999994
 20
-26.3761920000000032
 30
0.0
  0
INSERT
  5
B4
100
AcDbEntity
100
AcDbBlockReference
  8
Wheels
 62
256
370
-1
  6
BYLAYER
  2
Left_Wheel
 10
16.0
 20
7.5000000000000036
 30
0.0
  0
CIRCLE
  5
B5
100
AcDbEntity
100
AcDbCircle
  8
Top_Standoffs
 62
256
370
-1
  6
BYLAYER
 10
-48.0832611207000014
 20
48.0832611207000014
 30
0.0
 40
1.5874999999999999
  0
CIRCLE
  5
B6
100
AcDbEntity
100
AcDbCircle
  8
Top_Standoffs
 62
256
370
-1
  6
BYLAYER
 10
48.0832611207000014
 20
48.0832611207000014
 30
0.0
 40
1.5874999999999999
  0
CIRCLE
  5
B7
100
AcDbEntity
100
AcDbCircle
  8
Top_Standoffs
 62
256
370
-1
  6
BYLAYER
 10
48.0832611207000014
 20
-48.0832611207000014
 30
0.0
 40
1.5874999999999999
  0
CIRCLE
  5
B8
100
AcDbEntity
100
AcDbCircle
  8
Top_Standoffs
 62
256
370
-1
  6
BYLAYER
 10
-48.0832611207000014
 20
-48.0832611207000014
 30
0.0
 40
1.5874999999999999
  0
INSERT
  5
B9
100
AcDbEntity
100
AcDbBlockReference
  8
Battery
 62
256
370
-1
  6
BYLAYER
  2
Battery_Holder
 10
0.0
 20
37.0
 30
0.0
  0
INSERT
  5
BA
100
AcDbEntity
100
AcDbBlockReference
  8
Speaker
 62
256
370
-1
  6
BYLAYER
  2
Speaker_Holes
 10
0.0
 20
-30.0
 30
0.0
  0
INSERT
  5
BB
100
AcDbEntity
100
AcDbBlockReference
  8
Groove
 62
256
370
-1
  6
BYLAYER
  2
Line_Sensor_Holes
 10
0.0229999999999997
 20
-67.0
 30
0.0
  0
LINE
  5
BC
100
AcDbEntity
100
AcDbLine
  8
Base
 62
256
370
-1
  6
BYLAYER
 10
67.6180745080693271
 20
32.0402344688859486
 30
0.0
 11
65.9529758137034037
 21
31.3505280069898546
 31
0.0
  0
LINE
  5
BD
100
AcDbEntity
100
AcDbLine
  8
Base
 62
256
370
-1
  6
BYLAYER
 10
68.8039673848232951
 20
24.467625489780751
 30
0.0
 11
70.4690660791892327
 21
25.1573319516768592
 31
0.0
  0
ARC
  5
BE
100
AcDbEntity
  8
Base
 62
256
370
-1
  6
BYLAYER
100
AcDbCircle
 10
0.0
 20
0.0
 30
0.0
 40
77.8250000000000028
100
AcDbArc
 50
15.6924290893200862
 51
29.3075709106799316
  0
LINE
  5
BF
100
AcDbEntity
100
AcDbLine
  8
Base
 62
256
370
-1
  6
BYLAYER
 10
67.8637579276046239
 20
38.0951569749158594
 30
0.0
 11
65.071642239114837
 21
36.9386247890287009
 31
0.0
  0
LINE
  5
C0
100
AcDbEntity
100
AcDbLine
  8
Base
 62
256
370
-1
  6
BYLAYER
 10
72.1321515662507693
 20
19.8930474141953901
 30
0.0
 11
74.9242672547405562
 21
21.0495796000825486
 31
0.0
  0
ARC
  5
C1
100
AcDbEntity
  8
Base
 62
256
370
-1
  6
BYLAYER
100
AcDbCircle
 10
0.0
 20
0.0
 30
0.0
 40
74.8250000000000028
100
AcDbArc
 50
15.4181183097142274
 51
19.6464746523185951
  0
ARC
  5
C2
100
AcDbEntity
  8
Base
 62
256
370
-1
  6
BYLAYER
100
AcDbCircle
 10
0.0
 20
0.0
 30
0.0
 40
74.8250000000000028
100
AcDbArc
 50
25.3535253476814582
 51
29.5818816902858011
  0
LINE
  5
C3
100
AcDbEntity
100
AcDbLine
  8
Base
 62
256
370
-1
  6
BYLAYER
 10
25.1573319516768379
 20
70.4690660791892611
 30
0.0
 11
24.4676254897807333
 21
68.8039673848233377
 31
0.0
  0
LINE
  5
C4
100
AcDbEntity
100
AcDbLine
  8
Base
 62
256
370
-1
  6
BYLAYER
 10
31.3505280069897978
 20
65.9529758137034037
 30
0.0
 11
32.0402344688858989
 21
67.6180745080693413
 31
0.0
  0
ARC
  5
C5
100
AcDbEntity
  8
Base
 62
256
370
-1
  6
BYLAYER
100
AcDbCircle
 10
0.0
 20
0.0
 30
0.0
 40
77.8250000000000028
100
AcDbArc
 50
60.6924290893200791
 51
74.307570910679928
  0
LINE
  5
C6
100
AcDbEntity
100
AcDbLine
  8
Base
 62
256
370
-1
  6
BYLAYER
 10
21.0495796000825415
 20
74.9242672547405704
 30
0.0
 11
19.8930474141953724
 21
72.1321515662507835
 31
0.0
  0
LINE
  5
C7
100
AcDbEntity
100
AcDbLine
  8
Base
 62
256
370
-1
  6
BYLAYER
 10
36.9386247890286725
 20
65.0716422391148512
 30
0.0
 11
38.0951569749158807
 21
67.8637579276045955
 31
0.0
  0
ARC
  5
C8
100
AcDbEntity
  8
Base
 62
256
370
-1
  6
BYLAYER
100
AcDbCircle
 10
0.0
 20
0.0
 30
0.0
 40
74.8250000000000028
100
AcDbArc
 50
60.4181183097142309
 51
64.6464746523186022
  0
ARC
  5
C9
100
AcDbEntity
  8
Base
 62
256
370
-1
  6
BYLAYER
100
AcDbCircle
 10
0.0
 20
0.0
 30
0.0
 40
74.8250000000000028
100
AcDbArc
 50
70.3535253476814546
 51
74.5818816902858117
  0
LINE
  5
CA
100
AcDbEntity
100
AcDbLine
  8
Base
 62
256
370
-1
  6
BYLAYER
 10
-32.0402344688859415
 20
67.6180745080693271
 30
0.0
 11
-31.3505280069898582
 21
65.9529758137034037
 31
0.0
  0
LINE
  5
CB
100
AcDbEntity
100
AcDbLine
  8
Base
 62
256
370
-1
  6
BYLAYER
 10
-24.4676254897807617
 20
68.8039673848232951
 30
0.0
 11
-25.1573319516768699
 21
70.4690660791892327
 31
0.0
  0
ARC
  5
CC
100
AcDbEntity
  8
Base
 62
256
370
-1
  6
BYLAYER
100
AcDbCircle
 10
0.0
 20
0.0
 30
0.0
 40
77.8250000000000028
100
AcDbArc
 50
105.6924290893200862
 51
119.3075709106799422
  0
LINE
  5
CD
100
AcDbEntity
100
AcDbLine
  8
Base
 62
256
370
-1
  6
BYLAYER
 10
-38.0951569749158807
 20
67.8637579276046239
 30
0.0
 11
-36.9386247890287081
 21
65.071642239114837
 31
0.0
  0
LINE
  5
CE
100
AcDbEntity
100
AcDbLine
  8
Base
 62
256
370
-1
  6
BYLAYER
 10
-19.8930474141954079
 20
72.1321515662507693
 30
0.0
 11
-21.0495796000825131
 21
74.9242672547405562
 31
0.0
  0
ARC
  5
CF
100
AcDbEntity
  8
Base
 62
256
370
-1
  6
BYLAYER
100
AcDbCircle
 10
0.0
 20
0.0
 30
0.0
 40
74.8250000000000028
100
AcDbArc
 50
105.4181183097142309
 51
109.6464746523186022
  0
ARC
  5
D0
100
AcDbEntity
  8
Base
 62
256
370
-1
  6
BYLAYER
100
AcDbCircle
 10
0.0
 20
0.0
 30
0.0
 40
74.8250000000000028
100
AcDbArc
 50
115.3535253476814688
 51
119.5818816902858117
  0
LINE
  5
D1
100
AcDbEntity
100
AcDbLine
  8
Base
 62
256
370
-1
  6
BYLAYER
 10
-70.4690660791892469
 20
25.1573319516768414
 30
0.0
 11
-68.8039673848233377
 21
24.4676254897807191
 31
0.0
  0
LINE
  5
D2
100
AcDbEntity
100
AcDbLine
  8
Base
 62
256
370
-1
  6
BYLAYER
 10
-65.9529758137033895
 20
31.3505280069898014
 30
0.0
 11
-67.6180745080693271
 21
32.0402344688859202
 31
0.0
  0
ARC
  5
D3
100
AcDbEntity
  8
Base
 62
256
370
-1
  6
BYLAYER
100
AcDbCircle
 10
0.0
 20
0.0
 30
0.0
 40
77.8250000000000028
100
AcDbArc
 50
150.6924290893200862
 51
164.3075709106799422
  0
LINE
  5
D4
100
AcDbEntity
100
AcDbLine
  8
Base
 62
256
370
-1
  6
BYLAYER
 10
-74.9242672547405704
 20
21.0495796000825273
 30
0.0
 11
-72.1321515662507835
 21
19.8930474141953759
 31
0.0
  0
LINE
  5
D5
100
AcDbEntity
100
AcDbLine
  8
Base
 62
256
370
-1
  6
BYLAYER
 10
-65.0716422391148512
 20
36.9386247890286938
 30
0.0
 11
-67.8637579276045955
 21
38.0951569749158807
 31
0.0
  0
ARC
  5
D6
100
AcDbEntity
  8
Base
 62
256
370
-1
  6
BYLAYER
100
AcDbCircle
 10
0.0
 20
0.0
 30
0.0
 40
74.8250000000000028
100
AcDbArc
 50
150.4181183097142025
 51
154.6464746523185738
  0
ARC
  5
D7
100
AcDbEntity
  8
Base
 62
256
370
-1
  6
BYLAYER
100
AcDbCircle
 10
0.0
 20
0.0
 30
0.0
 40
74.8250000000000028
100
AcDbArc
 50
160.3535253476814546
 51
164.5818816902857975
  0
LINE
  5
D8
100
AcDbEntity
100
AcDbLine
  8
Base
 62
256
370
-1
  6
BYLAYER
 10
-67.6180745080693271
 20
-32.0402344688859344
 30
0.0
 11
-65.9529758137034037
 21
-31.3505280069898546
 31
0.0
  0
LINE
  5
D9
100
AcDbEntity
100
AcDbLine
  8
Base
 62
256
370
-1
  6
BYLAYER
 10
-68.8039673848232951
 20
-24.4676254897807546
 30
0.0
 11
-70.4690660791892469
 21
-25.1573319516768485
 31
0.0
  0
ARC
  5
DA
100
AcDbEntity
  8
Base
 62
256
370
-1
  6
BYLAYER
100
AcDbCircle
 10
0.0
 20
0.0
 30
0.0
 40
77.8250000000000028
100
AcDbArc
 50
195.6924290893200862
 51
209.3075709106799707
  0
LINE
  5
DB
100
AcDbEntity
100
AcDbLine
  8
Base
 62
256
370
-1
  6
BYLAYER
 10
-67.8637579276046239
 20
-38.0951569749158736
 30
0.0
 11
-65.071642239114837
 21
-36.9386247890287081
 31
0.0
  0
LINE
  5
DC
100
AcDbEntity
100
AcDbLine
  8
Base
 62
256
370
-1
  6
BYLAYER
 10
-72.1321515662507835
 20
-19.8930474141953937
 30
0.0
 11
-74.9242672547405704
 21
-21.0495796000825059
 31
0.0
  0
ARC
  5
DD
100
AcDbEntity
  8
Base
 62
256
370
-1
  6
BYLAYER
100
AcDbCircle
 10
0.0
 20
0.0
 30
0.0
 40
74.8250000000000028
100
AcDbArc
 50
195.4181183097142309
 51
199.6464746523185738
  0
ARC
  5
DE
100
AcDbEntity
  8
Base
 62
256
370
-1
  6
BYLAYER
100
AcDbCircle
 10
0.0
 20
0.0
 30
0.0
 40
74.8250000000000028
100
AcDbArc
 50
205.3535253476814546
 51
209.5818816902857975
  0
LINE
  5
DF
100
AcDbEntity
100
AcDbLine
  8
Base
 62
256
370
-1
  6
BYLAYER
 10
-25.1573319516768166
 20
-70.4690660791892753
 30
0.0
 11
-24.4676254897807262
 21
-68.8039673848233377
 31
0.0
  0
LINE
  5
E0
100
AcDbEntity
100
AcDbLine
  8
Base
 62
256
370
-1
  6
BYLAYER
 10
-31.3505280069898085
 20
-65.9529758137033895
 30
0.0
 11
-32.0402344688859202
 21
-67.6180745080693271
 31
0.0
  0
ARC
  5
E1
100
AcDbEntity
  8
Base
 62
256
370
-1
  6
BYLAYER
100
AcDbCircle
 10
0.0
 20
0.0
 30
0.0
 40
77.8250000000000028
100
AcDbArc
 50
240.6924290893201146
 51
254.3075709106799707
  0
LINE
  5
E2
100
AcDbEntity
100
AcDbLine
  8
Base
 62
256
370
-1
  6
BYLAYER
 10
-21.0495796000825308
 20
-74.9242672547405704
 30
0.0
 11
-19.8930474141954114
 21
-72.1321515662507693
 31
0.0
  0
LINE
  5
E3
100
AcDbEntity
100
AcDbLine
  8
Base
 62
256
370
-1
  6
BYLAYER
 10
-36.9386247890286938
 20
-65.0716422391148512
 30
0.0
 11
-38.0951569749158878
 21
-67.8637579276045955
 31
0.0
  0
ARC
  5
E4
100
AcDbEntity
  8
Base
 62
256
370
-1
  6
BYLAYER
100
AcDbCircle
 10
0.0
 20
0.0
 30
0.0
 40
74.8250000000000028
100
AcDbArc
 50
240.4181183097142309
 51
244.6464746523185738
  0
ARC
  5
E5
100
AcDbEntity
  8
Base
 62
256
370
-1
  6
BYLAYER
100
AcDbCircle
 10
0.0
 20
0.0
 30
0.0
 40
74.8250000000000028
100
AcDbArc
 50
250.3535253476814546
 51
254.5818816902857691
  0
LINE
  5
E6
100
AcDbEntity
100
AcDbLine
  8
Base
 62
256
370
-1
  6
BYLAYER
 10
32.040234468885906
 20
-67.6180745080693413
 30
0.0
 11
31.3505280069898511
 21
-65.9529758137034037
 31
0.0
  0
LINE
  5
E7
100
AcDbEntity
100
AcDbLine
  8
Base
 62
256
370
-1
  6
BYLAYER
 10
24.467625489780751
 20
-68.8039673848232951
 30
0.0
 11
25.157331951676845
 21
-70.4690660791892469
 31
0.0
  0
ARC
  5
E8
100
AcDbEntity
  8
Base
 62
256
370
-1
  6
BYLAYER
100
AcDbCircle
 10
0.0
 20
0.0
 30
0.0
 40
77.8250000000000028
100
AcDbArc
 50
285.6924290893201146
 51
299.3075709106799422
  0
LINE
  5
E9
100
AcDbEntity
100
AcDbLine
  8
Base
 62
256
370
-1
  6
BYLAYER
 10
38.0951569749158736
 20
-67.8637579276046239
 30
0.0
 11
36.9386247890286725
 21
-65.0716422391148512
 31
0.0
  0
LINE
  5
EA
100
AcDbEntity
100
AcDbLine
  8
Base
 62
256
370
-1
  6
BYLAYER
 10
19.893047414195383
 20
-72.1321515662507835
 30
0.0
 11
21.0495796000825024
 21
-74.9242672547405704
 31
0.0
  0
ARC
  5
EB
100
AcDbEntity
  8
Base
 62
256
370
-1
  6
BYLAYER
100
AcDbCircle
 10
0.0
 20
0.0
 30
0.0
 40
74.8250000000000028
100
AcDbArc
 50
285.4181183097142593
 51
289.6464746523186022
  0
ARC
  5
EC
100
AcDbEntity
  8
Base
 62
256
370
-1
  6
BYLAYER
100
AcDbCircle
 10
0.0
 20
0.0
 30
0.0
 40
74.8250000000000028
100
AcDbArc
 50
295.3535253476814546
 51
299.5818816902857407
  0
LINE
  5
ED
100
AcDbEntity
100
AcDbLine
  8
Base
 62
256
370
-1
  6
BYLAYER
 10
70.4690660791892611
 20
-25.1573319516768201
 30
0.0
 11
68.8039673848233377
 21
-24.4676254897807297
 31
0.0
  0
LINE
  5
EE
100
AcDbEntity
100
AcDbLine
  8
Base
 62
256
370
-1
  6
BYLAYER
 10
65.9529758137033895
 20
-31.350528006989812
 30
0.0
 11
67.6180745080693271
 21
-32.0402344688859273
 31
0.0
  0
ARC
  5
EF
100
AcDbEntity
  8
Base
 62
256
370
-1
  6
BYLAYER
100
AcDbCircle
 10
0.0
 20
0.0
 30
0.0
 40
77.8250000000000028
100
AcDbArc
 50
330.6924290893201146
 51
344.3075709106799422
  0
LINE
  5
F0
100
AcDbEntity
100
AcDbLine
  8
Base
 62
256
370
-1
  6
BYLAYER
 10
74.9242672547405704
 20
-21.0495796000825379
 30
0.0
 11
72.1321515662507693
 21
-19.8930474141954186
 31
0.0
  0
LINE
  5
F1
100
AcDbEntity
100
AcDbLine
  8
Base
 62
256
370
-1
  6
BYLAYER
 10
65.0716422391148512
 20
-36.9386247890287009
 30
0.0
 11
67.8637579276045955
 21
-38.0951569749158878
 31
0.0
  0
ARC
  5
F2
100
AcDbEntity
  8
Base
 62
256
370
-1
  6
BYLAYER
100
AcDbCircle
 10
0.0
 20
0.0
 30
0.0
 40
74.8250000000000028
100
AcDbArc
 50
330.4181183097142593
 51
334.6464746523186022
  0
ARC
  5
F3
100
AcDbEntity
  8
Base
 62
256
370
-1
  6
BYLAYER
100
AcDbCircle
 10
0.0
 20
0.0
 30
0.0
 40
74.8250000000000028
100
AcDbArc
 50
340.3535253476814546
 51
344.5818816902857407
  0
ARC
  5
F4
100
AcDbEntity
  8
Base
 62
256
370
-1
  6
BYLAYER
100
AcDbCircle
 10
0.0
 20
0.0
 30
0.0
 40
73.0250000000000057
100
AcDbArc
 50
25.4239225438292777
 51
64.5760774561707649
  0
ARC
  5
F5
100
AcDbEntity
  8
Base
 62
256
370
-1
  6
BYLAYER
100
AcDbCircle
 10
0.0
 20
0.0
 30
0.0
 40
73.0250000000000057
100
AcDbArc
 50
70.4239225438292777
 51
109.5760774561707649
  0
ARC
  5
F6
100
AcDbEntity
  8
Base
 62
256
370
-1
  6
BYLAYER
100
AcDbCircle
 10
0.0
 20
0.0
 30
0.0
 40
73.0250000000000057
100
AcDbArc
 50
115.423922543829292
 51
154.5760774561707649
  0
ARC
  5
F7
100
AcDbEntity
  8
Base
 62
256
370
-1
  6
BYLAYER
100
AcDbCircle
 10
0.0
 20
0.0
 30
0.0
 40
73.0250000000000057
100
AcDbArc
 50
160.423922543829292
 51
199.5760774561707365
  0
ARC
  5
F8
100
AcDbEntity
  8
Base
 62
256
370
-1
  6
BYLAYER
100
AcDbCircle
 10
0.0
 20
0.0
 30
0.0
 40
73.0250000000000057
100
AcDbArc
 50
205.4239225438292635
 51
244.576077456170708
  0
ARC
  5
F9
100
AcDbEntity
  8
Base
 62
256
370
-1
  6
BYLAYER
100
AcDbCircle
 10
0.0
 20
0.0
 30
0.0
 40
73.0250000000000057
100
AcDbArc
 50
250.423922543829292
 51
289.5760774561707649
  0
ARC
  5
FA
100
AcDbEntity
  8
Base
 62
256
370
-1
  6
BYLAYER
100
AcDbCircle
 10
0.0
 20
0.0
 30
0.0
 40
73.0250000000000057
100
AcDbArc
 50
295.423922543829292
 51
334.576077456170708
  0
ARC
  5
FB
100
AcDbEntity
  8
Base
 62
256
370
-1
  6
BYLAYER
100
AcDbCircle
 10
0.0
 20
0.0
 30
0.0
 40
73.0250000000000057
100
AcDbArc
 50
340.423922543829292
 51
19.5760774561707578
  0
DIMENSION
  5
FC
100
AcDbEntity
  8
Dimensions
 62
256
370
-1
  6
BYLAYER
100
AcDbDimension
 10
60.0
 20
-80.0
 30
0.0
 11
0.0000000000000001
 21
-78.125
 31
0.0
 70
0
 71
8
 72
2
 41
1.0
 42
0.0
  1

  3
Standard
100
AcDbAlignedDimension
 13
-73.0250000000000057
 23
0.0000000000000089
 33
0.0
 14
73.0250000000000057
 24
-0.0000000000000179
 34
0.0
 50
0.0
100
AcDbRotatedDimension
1001
ACAD
1000
DSTYLE
1002
{
1070
144
1040
1
1002
}
  0
ENDSEC
  0
SECTION
  2
OBJECTS
  0
DICTIONARY
  5
C
100
AcDbDictionary
280
0
281
1
  3
ACAD_GROUP
350
D
  3
ACAD_LAYOUT
350
1A
  3
ACAD_MLINESTYLE
350
17
  3
ACAD_PLOTSETTINGS
350
19
  3
ACAD_PLOTSTYLENAME
350
E
  3
AcDbVariableDictionary
350
FD
  3
QCAD_OBJECTS
350
FE
  0
DICTIONARY
  5
D
100
AcDbDictionary
280
0
281
1
  0
ACDBDICTIONARYWDFLT
  5
E
100
AcDbDictionary
281
1
  3
Normal
350
F
100
AcDbDictionaryWithDefault
340
F
  0
ACDBPLACEHOLDER
  5
F
  0
DICTIONARY
  5
17
100
AcDbDictionary
280
0
281
1
  3
Standard
350
18
  0
MLINESTYLE
  5
18
100
AcDbMlineStyle
  2
STANDARD
 70
0
  3

 62
256
 51
90.0
 52
90.0
 71
2
 49
0.5
 62
256
  6
BYLAYER
 49
-0.5
 62
256
  6
BYLAYER
  0
DICTIONARY
  5
19
100
AcDbDictionary
280
0
281
1
  0
DICTIONARY
  5
1A
100
AcDbDictionary
281
1
  3
Layout1
350
1E
  3
Layout2
350
26
  3
Model
350
22
  0
LAYOUT
  5
1E
100
AcDbPlotSettings
  1

  2
none_device
  4

  6

 40
0.0
 41
0.0
 42
0.0
 43
0.0
 44
0.0
 45
0.0
 46
0.0
 47
0.0
 48
0.0
 49
0.0
140
0.0
141
0.0
142
1.0
143
1.0
 70
688
 72
0
 73
0
 74
5
  7

 75
16
147
1.0
148
0.0
149
0.0
100
AcDbLayout
  1
Layout1
 70
1
 71
1
 10
0.0
 20
0.0
 11
420.0
 21
297.0
 12
0.0
 22
0.0
 32
0.0
 14
100000000000000000000.0
 24
100000000000000000000.0
 34
100000000000000000000.0
 15
-100000000000000000000.0
 25
-100000000000000000000.0
 35
-100000000000000000000.0
146
0.0
 13
0.0
 23
0.0
 33
0.0
 16
1.0
 26
0.0
 36
0.0
 17
0.0
 27
1.0
 37
0.0
 76
0
330
1B
  0
LAYOUT
  5
22
100
AcDbPlotSettings
  1

  2
none_device
  4

  6

 40
0.0
 41
0.0
 42
0.0
 43
0.0
 44
0.0
 45
0.0
 46
0.0
 47
0.0
 48
0.0
 49
0.0
140
0.0
141
0.0
142
1.0
143
1.0
 70
1712
 72
0
 73
0
 74
0
  7

 75
0
147
1.0
148
0.0
149
0.0
100
AcDbLayout
  1
Model
 70
1
 71
0
 10
0.0
 20
0.0
 11
12.0
 21
9.0
 12
0.0
 22
0.0
 32
0.0
 14
0.0
 24
0.0
 34
0.0
 15
0.0
 25
0.0
 35
0.0
146
0.0
 13
0.0
 23
0.0
 33
0.0
 16
1.0
 26
0.0
 36
0.0
 17
0.0
 27
1.0
 37
0.0
 76
0
330
1F
  0
LAYOUT
  5
26
100
AcDbPlotSettings
  1

  2
none_device
  4

  6

 40
0.0
 41
0.0
 42
0.0
 43
0.0
 44
0.0
 45
0.0
 46
0.0
 47
0.0
 48
0.0
 49
0.0
140
0.0
141
0.0
142
1.0
143
1.0
 70
688
 72
0
 73
0
 74
5
  7

 75
16
147
1.0
148
0.0
149
0.0
100
AcDbLayout
  1
Layout2
 70
1
 71
2
 10
0.0
 20
0.0
 11
12.0
 21
9.0
 12
0.0
 22
0.0
 32
0.0
 14
0.0
 24
0.0
 34
0.0
 15
0.0
 25
0.0
 35
0.0
146
0.0
 13
0.0
 23
0.0
 33
0.0
 16
1.0
 26
0.0
 36
0.0
 17
0.0
 27
1.0
 37
0.0
 76
0
330
23
  0
DICTIONARY
  5
FD
100
AcDbDictionary
281
1
  3
DIMASSOC
350
100
  3
HIDETEXT
350
FF
  0
DICTIONARYVAR
  5
FF
100
DictionaryVariables
280
0
  1
2
  0
DICTIONARYVAR
  5
100
100
DictionaryVariables
280
0
  1
1
  0
DICTIONARY
  5
FE
100
AcDbDictionary
281
1
  3
ColorSettings/ColorMode
350
101
  3
Grid/DisplayGrid00
350
102
  3
Grid/DisplayGrid01
350
103
  3
Grid/DisplayGrid02
350
104
  3
Grid/DisplayGrid03
350
105
  3
Grid/GridSpacingX00
350
106
  3
Grid/GridSpacingX01
350
107
  3
Grid/GridSpacingX02
350
108
  3
Grid/GridSpacingX03
350
109
  3
Grid/GridSpacingY00
350
10A
  3
Grid/GridSpacingY01
350
10B
  3
Grid/GridSpacingY02
350
10C
  3
Grid/GridSpacingY03
350
10D
  3
Grid/IsometricGrid00
350
10E
  3
Grid/IsometricGrid01
350
10F
  3
Grid/IsometricGrid02
350
110
  3
Grid/IsometricGrid03
350
111
  3
Grid/IsometricProjection00
350
112
  3
Grid/IsometricProjection01
350
113
  3
Grid/IsometricProjection02
350
114
  3
Grid/IsometricProjection03
350
115
  3
Grid/MetaGridSpacingX00
350
116
  3
Grid/MetaGridSpacingX01
350
117
  3
Grid/MetaGridSpacingX02
350
118
  3
Grid/MetaGridSpacingX03
350
119
  3
Grid/MetaGridSpacingY00
350
11A
  3
Grid/MetaGridSpacingY01
350
11B
  3
Grid/MetaGridSpacingY02
350
11C
  3
Grid/MetaGridSpacingY03
350
11D
  3
MultiPageSettings/Columns
350
11E
  3
MultiPageSettings/GlueMarginsBottom
350
11F
  3
MultiPageSettings/GlueMarginsLeft
350
120
  3
MultiPageSettings/GlueMarginsRight
350
121
  3
MultiPageSettings/GlueMarginsTop
350
122
  3
MultiPageSettings/PrintCropMarks
350
123
  3
MultiPageSettings/Rows
350
124
  3
PageSettings/OffsetX
350
125
  3
PageSettings/OffsetY
350
126
  3
PageSettings/PageOrientation
350
127
  3
PageSettings/PaperHeight
350
128
  3
PageSettings/PaperWidth
350
129
  3
PageSettings/Scale
350
12A
  3
PageSettings/ShowPaperBorders
350
12B
  3
UnitSettings/PaperUnit
350
12C
  0
XRECORD
  5
101
330
FE
100
AcDbXrecord
280
1
1000
FullColor
  0
XRECORD
  5
102
330
FE
100
AcDbXrecord
280
1
290
1
  0
XRECORD
  5
103
330
FE
100
AcDbXrecord
280
1
290
1
  0
XRECORD
  5
104
330
FE
100
AcDbXrecord
280
1
290
1
  0
XRECORD
  5
105
330
FE
100
AcDbXrecord
280
1
290
1
  0
XRECORD
  5
106
330
FE
100
AcDbXrecord
280
1
1000
auto
  0
XRECORD
  5
107
330
FE
100
AcDbXrecord
280
1
1000
auto
  0
XRECORD
  5
108
330
FE
100
AcDbXrecord
280
1
1000
auto
  0
XRECORD
  5
109
330
FE
100
AcDbXrecord
280
1
1000
auto
  0
XRECORD
  5
10A
330
FE
100
AcDbXrecord
280
1
1000
auto
  0
XRECORD
  5
10B
330
FE
100
AcDbXrecord
280
1
1000
auto
  0
XRECORD
  5
10C
330
FE
100
AcDbXrecord
280
1
1000
auto
  0
XRECORD
  5
10D
330
FE
100
AcDbXrecord
280
1
1000
auto
  0
XRECORD
  5
10E
330
FE
100
AcDbXrecord
280
1
290
0
  0
XRECORD
  5
10F
330
FE
100
AcDbXrecord
280
1
290
0
  0
XRECORD
  5
110
330
FE
100
AcDbXrecord
280
1
290
0
  0
XRECORD
  5
111
330
FE
100
AcDbXrecord
280
1
290
0
  0
XRECORD
  5
112
330
FE
100
AcDbXrecord
280
1
 90
4
  0
XRECORD
  5
113
330
FE
100
AcDbXrecord
280
1
 90
0
  0
XRECORD
  5
114
330
FE
100
AcDbXrecord
280
1
 90
0
  0
XRECORD
  5
115
330
FE
100
AcDbXrecord
280
1
 90
0
  0
XRECORD
  5
116
330
FE
100
AcDbXrecord
280
1
1000
auto
  0
XRECORD
  5
117
330
FE
100
AcDbXrecord
280
1
1000
auto
  0
XRECORD
  5
118
330
FE
100
AcDbXrecord
280
1
1000
auto
  0
XRECORD
  5
119
330
FE
100
AcDbXrecord
280
1
1000
auto
  0
XRECORD
  5
11A
330
FE
100
AcDbXrecord
280
1
1000
auto
  0
XRECORD
  5
11B
330
FE
100
AcDbXrecord
280
1
1000
auto
  0
XRECORD
  5
11C
330
FE
100
AcDbXrecord
280
1
1000
auto
  0
XRECORD
  5
11D
330
FE
100
AcDbXrecord
280
1
1000
auto
  0
XRECORD
  5
11E
330
FE
100
AcDbXrecord
280
1
 90
1
  0
XRECORD
  5
11F
330
FE
100
AcDbXrecord
280
1
 40
10.0
  0
XRECORD
  5
120
330
FE
100
AcDbXrecord
280
1
 40
10.0
  0
XRECORD
  5
121
330
FE
100
AcDbXrecord
280
1
 40
10.0
  0
XRECORD
  5
122
330
FE
100
AcDbXrecord
280
1
 40
10.0
  0
XRECORD
  5
123
330
FE
100
AcDbXrecord
280
1
290
0
  0
XRECORD
  5
124
330
FE
100
AcDbXrecord
280
1
 90
1
  0
XRECORD
  5
125
330
FE
100
AcDbXrecord
280
1
 40
-107.9500000000000028
  0
XRECORD
  5
126
330
FE
100
AcDbXrecord
280
1
 40
-139.6999999999999886
  0
XRECORD
  5
127
330
FE
100
AcDbXrecord
280
1
1000
Portrait
  0
XRECORD
  5
128
330
FE
100
AcDbXrecord
280
1
 40
279.3999999999999773
  0
XRECORD
  5
129
330
FE
100
AcDbXrecord
280
1
 40
215.9000000000000057
  0
XRECORD
  5
12A
330
FE
100
AcDbXrecord
280
1
1000
1:1
  0
XRECORD
  5
12B
330
FE
100
AcDbXrecord
280
1
290
1
  0
XRECORD
  5
12C
330
FE
100
AcDbXrecord
280
1
 90
4
  0
ENDSEC
  0
EOF
